<svg width="33" height="35" viewBox="0 0 33 35" fill="none" xmlns="http://www.w3.org/2000/svg">
<path d="M12.7188 32.0834L12.1688 27.4167C11.8708 27.2952 11.5901 27.1493 11.3266 26.9792C11.063 26.809 10.8052 26.6268 10.5531 26.4323L6.4625 28.2552L2.68125 21.3281L6.22188 18.4844C6.19896 18.3143 6.1875 18.1502 6.1875 17.9922V17.0078C6.1875 16.8498 6.19896 16.6858 6.22188 16.5156L2.68125 13.6719L6.4625 6.74481L10.5531 8.56773C10.8052 8.37328 11.0688 8.19099 11.3438 8.02085C11.6188 7.85071 11.8938 7.70488 12.1688 7.58335L12.7188 2.91669H20.2813L20.8313 7.58335C21.1292 7.70488 21.4099 7.85071 21.6734 8.02085C21.937 8.19099 22.1948 8.37328 22.4469 8.56773L26.5375 6.74481L30.3188 13.6719L26.7781 16.5156C26.801 16.6858 26.8125 16.8498 26.8125 17.0078V17.9922C26.8125 18.1502 26.7896 18.3143 26.7438 18.4844L30.2844 21.3281L26.5031 28.2552L22.4469 26.4323C22.1948 26.6268 21.9313 26.809 21.6563 26.9792C21.3813 27.1493 21.1063 27.2952 20.8313 27.4167L20.2813 32.0834H12.7188ZM15.125 29.1667H17.8406L18.3219 25.3021C19.0323 25.1077 19.6911 24.8221 20.2984 24.4453C20.9057 24.0686 21.4615 23.6129 21.9656 23.0781L25.3688 24.5729L26.7094 22.0938L23.7531 19.724C23.8677 19.3837 23.9479 19.0252 23.9938 18.6485C24.0396 18.2717 24.0625 17.8889 24.0625 17.5C24.0625 17.1111 24.0396 16.7283 23.9938 16.3516C23.9479 15.9748 23.8677 15.6163 23.7531 15.2761L26.7094 12.9063L25.3688 10.4271L21.9656 11.9584C21.4615 11.3993 20.9057 10.9314 20.2984 10.5547C19.6911 10.178 19.0323 9.89238 18.3219 9.69794L17.875 5.83335H15.1594L14.6781 9.69794C13.9677 9.89238 13.3089 10.178 12.7016 10.5547C12.0943 10.9314 11.5385 11.3872 11.0344 11.9219L7.63125 10.4271L6.29063 12.9063L9.24688 15.2396C9.13229 15.6042 9.05208 15.9688 9.00625 16.3334C8.96042 16.6979 8.9375 17.0868 8.9375 17.5C8.9375 17.8889 8.96042 18.2656 9.00625 18.6302C9.05208 18.9948 9.13229 19.3594 9.24688 19.724L6.29063 22.0938L7.63125 24.5729L11.0344 23.0417C11.5385 23.6007 12.0943 24.0686 12.7016 24.4453C13.3089 24.8221 13.9677 25.1077 14.6781 25.3021L15.125 29.1667ZM16.5688 22.6042C17.8979 22.6042 19.0323 22.1059 19.9719 21.1094C20.9115 20.1129 21.3813 18.9097 21.3813 17.5C21.3813 16.0903 20.9115 14.8872 19.9719 13.8906C19.0323 12.8941 17.8979 12.3959 16.5688 12.3959C15.2167 12.3959 14.0766 12.8941 13.1484 13.8906C12.2203 14.8872 11.7563 16.0903 11.7563 17.5C11.7563 18.9097 12.2203 20.1129 13.1484 21.1094C14.0766 22.1059 15.2167 22.6042 16.5688 22.6042Z" fill="#FEF7FF"/>
</svg>
